<?xml version="1.0" encoding="UTF-8"?>
<svg id="OBJECTS" xmlns="http://www.w3.org/2000/svg" viewBox="0 0 373.48 365.1">
  <defs>
    <style>
      .cls-1 {
        fill: #74baa6;
      }

      .cls-2 {
        opacity: .4;
      }

      .cls-2, .cls-3 {
        fill: #003768;
      }

      .cls-4 {
        fill: #e3e5d6;
      }

      .cls-5, .cls-6, .cls-7, .cls-8, .cls-9, .cls-10, .cls-11, .cls-12, .cls-13, .cls-14 {
        fill: none;
        stroke-linecap: round;
        stroke-linejoin: round;
      }

      .cls-5, .cls-7 {
        stroke: #499280;
      }

      .cls-5, .cls-11, .cls-12, .cls-14 {
        stroke-width: .88px;
      }

      .cls-6 {
        stroke: #135940;
      }

      .cls-7 {
        stroke-width: .67px;
      }

      .cls-15 {
        fill: #dc849e;
      }

      .cls-16 {
        fill: #0064ac;
      }

      .cls-17 {
        fill: #27725d;
      }

      .cls-8 {
        stroke: #c93a6e;
        stroke-width: .75px;
      }

      .cls-9, .cls-11 {
        stroke: #27725d;
      }

      .cls-18 {
        fill: #e0638a;
      }

      .cls-10 {
        stroke: #125943;
      }

      .cls-19 {
        fill: #55aa94;
      }

      .cls-12 {
        stroke: #003768;
      }

      .cls-13 {
        stroke: #0064ac;
        stroke-width: .84px;
      }

      .cls-20 {
        fill: #499280;
      }

      .cls-14 {
        stroke: #ccceba;
      }

      .cls-21 {
        fill: #db839a;
        opacity: .45;
      }

      .cls-22 {
        fill: #f3f3f3;
      }
    </style>
  </defs>
  <ellipse class="cls-21" cx="186.74" cy="335.21" rx="186.74" ry="29.89"/>
  <g>
    <g>
      <path class="cls-7" d="M98.73,317.29c-12.02-10.96-20.45-25.41-26.18-40.62-5.73-15.22-8.89-31.27-11.61-47.3-3.18-18.82-5.78-37.74-7.79-56.71"/>
      <path class="cls-17" d="M53.17,173.27c-6.29-10.36-9.56-22.52-9.32-34.63.05-2.29.29-4.74,1.27-6.75.88-1.8,3.17-2.57,4.86-1.49.45.29.83.68,1.13,1.21.9,1.6,1.19,3.45,1.43,5.26,1.64,12.16,1.81,24.18.63,36.4Z"/>
      <path class="cls-20" d="M53.81,179.17c2.39-10.05,7.69-19.39,15.09-26.59,1.4-1.36,3.01-2.7,4.81-3.33,1.61-.57,3.46.34,3.84,2.01.1.44.1.91-.04,1.41-.41,1.5-1.35,2.8-2.29,4.05-6.29,8.36-13.39,15.75-21.42,22.46Z"/>
      <path class="cls-20" d="M53.82,178.73c-10.05-2.39-19.39-7.69-26.59-15.09-1.36-1.4-2.7-3.01-3.33-4.81-.57-1.61.34-3.46,2.01-3.84.44-.1.91-.1,1.41.04,1.5.41,2.8,1.35,4.05,2.28,8.36,6.29,15.75,13.39,22.46,21.42Z"/>
      <path class="cls-20" d="M75.06,283.21c2.06-10.35,7.68-20.39,16-28.57,1.57-1.55,3.41-3.1,5.52-3.98,1.89-.78,4.19-.13,4.78,1.49.16.43.19.89.07,1.41-.37,1.56-1.39,2.98-2.42,4.35-6.89,9.19-14.83,17.52-23.96,25.3Z"/>
      <path class="cls-17" d="M75.28,283.11c-12.29-1.03-23.97-5.06-33.24-11.48-1.75-1.21-3.5-2.64-4.41-4.36-.81-1.53.13-3.5,2.1-4.1.52-.16,1.09-.22,1.7-.15,1.84.21,3.48.97,5.06,1.74,10.58,5.15,20.05,11.24,28.79,18.35Z"/>
      <path class="cls-20" d="M86.91,303.68c.54-10.54,4.65-21.28,11.7-30.59,1.33-1.76,2.92-3.56,4.89-4.73,1.76-1.05,4.13-.73,4.95.78.22.4.32.86.27,1.39-.14,1.59-.95,3.15-1.77,4.65-5.49,10.09-12.14,19.48-20.04,28.5Z"/>
      <path class="cls-20" d="M87.15,303.92c-12.31.76-24.45-1.54-34.56-6.55-1.91-.95-3.84-2.11-4.99-3.67-1.03-1.4-.38-3.48,1.49-4.36.49-.23,1.04-.37,1.66-.39,1.86-.06,3.59.45,5.26.98,11.21,3.57,21.47,8.22,31.14,13.99Z"/>
      <path class="cls-20" d="M56.16,197.89c4.36-9.36,11.43-17.44,20.13-23.01,1.65-1.05,3.49-2.04,5.39-2.3,1.69-.23,3.32,1.03,3.35,2.74,0,.45-.09.91-.32,1.37-.71,1.39-1.88,2.47-3.05,3.51-7.85,6.92-16.28,12.73-25.5,17.69Z"/>
      <path class="cls-17" d="M56.26,197.54c-10.31-.54-20.46-4.07-28.88-10.05-1.59-1.13-3.2-2.47-4.15-4.13-.85-1.48-.29-3.47,1.28-4.14.42-.18.88-.26,1.39-.21,1.55.13,3,.82,4.4,1.52,9.36,4.68,17.91,10.32,25.95,17.01Z"/>
      <path class="cls-17" d="M59,218.12c5-10.73,13.11-20,23.08-26.38,1.89-1.21,4-2.34,6.17-2.63,1.94-.26,3.81,1.18,3.85,3.14.01.52-.1,1.04-.37,1.57-.81,1.59-2.16,2.84-3.5,4.02-8.99,7.94-18.66,14.6-29.23,20.28Z"/>
      <path class="cls-20" d="M59.11,217.72c-11.82-.61-23.45-4.66-33.1-11.52-1.83-1.3-3.67-2.84-4.76-4.74-.97-1.7-.33-3.97,1.47-4.74.48-.2,1-.3,1.6-.25,1.78.15,3.44.94,5.04,1.74,10.73,5.37,20.53,11.84,29.75,19.5Z"/>
      <path class="cls-20" d="M62.36,237.63c5.37-10.76,14.04-20.07,24.69-26.5,2.01-1.22,4.27-2.36,6.58-2.67,2.07-.27,4.04,1.16,4.08,3.12,0,.52-.11,1.04-.4,1.58-.87,1.6-2.31,2.85-3.74,4.04-9.61,7.99-19.93,14.7-31.2,20.43Z"/>
      <path class="cls-17" d="M62.49,237.23c-12.58-.56-24.93-4.55-35.16-11.36-1.94-1.29-3.89-2.82-5.04-4.72-1.03-1.7-.33-3.97,1.59-4.75.51-.21,1.07-.3,1.7-.25,1.89.15,3.65.92,5.35,1.71,11.39,5.31,21.78,11.74,31.56,19.36Z"/>
      <path class="cls-20" d="M67,260.19c5.37-10.76,14.04-20.07,24.69-26.5,2.01-1.22,4.27-2.36,6.58-2.67,2.07-.27,4.04,1.16,4.08,3.12,0,.52-.11,1.04-.4,1.58-.87,1.6-2.31,2.85-3.74,4.04-9.61,7.99-19.93,14.7-31.2,20.43Z"/>
      <path class="cls-20" d="M67.13,259.78c-12.58-.56-24.93-4.55-35.16-11.36-1.94-1.29-3.89-2.82-5.04-4.72-1.03-1.7-.33-3.97,1.59-4.75.51-.21,1.07-.3,1.7-.25,1.89.15,3.65.92,5.35,1.71,11.39,5.31,21.78,11.74,31.56,19.36Z"/>
    </g>
    <g>
      <g>
        <path class="cls-20" d="M46.73,300.64c21.61,7.3,42.89,27.09,48.91,49.09-7.16.49-14.92-2.73-20.73-6.94-12.77-9.24-24.09-26.93-28.17-42.15Z"/>
        <path class="cls-9" d="M47.03,300.88c6.27,7.05,12.54,14.11,18.81,21.16"/>
      </g>
      <g>
        <path class="cls-17" d="M33.07,319.24c22.81-.45,49.53,10.97,62.64,29.64-6.57,2.89-14.96,2.48-21.86.49-15.15-4.37-31.79-17.18-40.78-30.13Z"/>
        <path class="cls-10" d="M33.49,319.25c17.81,11.99,38.62,21.42,59.08,27.9"/>
      </g>
    </g>
  </g>
  <g>
    <g>
      <path class="cls-22" d="M132.47,152.11l117.74-74.28,35.87,26.79c-18.48,6.24-38.52,13.2-57,19.44-7.69,2.6-15.39,5.2-22.93,8.22-6.86,2.75-13.58,5.86-20.5,8.47-17.1,6.45-34.91,11.36-53.18,11.36Z"/>
      <path class="cls-14" d="M146.27,148.54c38.11-20.93,76.04-42.2,113.77-63.81"/>
      <path class="cls-14" d="M147.28,148s73.2-31.54,124.49-53.81"/>
    </g>
    <g>
      <path class="cls-4" d="M121.81,152.6c11.84-17.39,24.18-34.4,37.02-51.08v-45.07c-.13-.13-.25-.25-.38-.38-18.69,32.78-36.06,66.31-51.2,100.87"/>
      <path class="cls-22" d="M158.59,55.76c-5.41-3.02-18.79-6.15-18.79-6.15-14.47,30.32-28.62,61.69-42.02,92.5,2.61.88,11.72,4.88,13.89,5.29.58-.9,31.87-61.77,46.92-91.64Z"/>
      <path class="cls-14" d="M104.59,141.77c13.9-30.13,28.57-59.91,44.01-89.29"/>
      <path class="cls-14" d="M107,144c8.19-15.16,16.38-30.33,24.57-45.49"/>
      <path class="cls-14" d="M137.5,88.02c5.19-8.69,13.58-24.3,18.15-33.33"/>
    </g>
    <g>
      <path class="cls-4" d="M121.63,148.97c23.56-31.8,50.86-64.58,75.63-95.44-.03,17.36.14,40.3.11,57.66-21.39,13.11-62.19,39.68-62.19,39.68"/>
      <polygon class="cls-22" points="197.26 53.54 192.86 52.57 116.09 148.12 120.67 150.41 197.26 53.54"/>
      <path class="cls-14" d="M119.56,147.51s74.16-93.17,74.77-93.92"/>
      <path class="cls-14" d="M135.51,143.33c19.04-20.73,38.07-41.47,57.11-62.2"/>
      <line class="cls-14" x1="164.13" y1="123.13" x2="187.24" y2="99.15"/>
    </g>
    <g>
      <path class="cls-16" d="M154.15,147.69l133.51-47.67c1.25-.41,2.53.52,2.53,1.83v206.68c0,1.61-1,3.04-2.5,3.6l-132.92,49.75-4.76-3.01"/>
      <line class="cls-12" x1="159.45" y1="152.08" x2="286.24" y2="106.02"/>
      <polyline class="cls-12" points="286.24 106.02 285.51 307.61 159.45 355.58 159.45 152.08"/>
      <polygon class="cls-2" points="172.03 168.32 275.28 133.22 275.28 164.52 172.03 200.49 172.03 168.32"/>
      <polygon class="cls-2" points="172.03 208.1 275.28 173 275.28 179.43 172.03 215.41 172.03 208.1"/>
      <path class="cls-12" d="M276.74,110c1.04,4.79,4.35,8.12,9.25,8.25"/>
      <path class="cls-12" d="M160.24,165.04c3.24-.95,6.06-3.26,7.64-6.25,1.58-2.99,1.89-6.62.85-9.83"/>
      <path class="cls-12" d="M159.97,339.97c3.04-.71,6.4.08,8.8,2.09s3.79,5.16,3.64,8.28"/>
      <path class="cls-12" d="M275.07,311.6c-.84-6.71,1.58-15,10.42-18.25"/>
    </g>
    <path class="cls-15" d="M178.23,300.1s.68-146.25-1-157.25c-1.03-6.72-5.82-11.44-9.77-12.76-.51-.17-.58-.87-.12-1.15l6.89-4.2c.18-.11.4-.13.6-.05,12.79,5.36,11.41,23.65,11.41,23.65l-.25,149-4.17-4-3.58,6.75Z"/>
    <g>
      <path class="cls-3" d="M93.73,138.26l41.96-90.39c.28-.61.97-.92,1.62-.72.56.17,1.24.38,1.83.57.77.24,1.16,1.11.82,1.84l-42.17,92.54-4.05-3.84Z"/>
      <g>
        <path class="cls-3" d="M154.8,362l.02-214.55c-10.09,2.44-21.84,2.81-31.86,1.52-10.91-1.4-21.75-4.86-29.24-10.71v203.74c0,13.65,17.17,18.92,26.53,19.79,11.44,1.07,24.07,1.81,34.54.2Z"/>
        <ellipse class="cls-16" cx="123.91" cy="257.38" rx="17.11" ry="55.28"/>
        <path class="cls-13" d="M94.92,157.79c19.54,8.52,42.58,11.6,63.53,8.47"/>
        <path class="cls-13" d="M94,170.04c19.54,8.52,42.58,11.6,63.53,8.47"/>
        <path class="cls-13" d="M94.92,324.51c19.54,8.52,42.58,11.6,63.53,8.47"/>
        <path class="cls-13" d="M94,336.76c19.54,8.52,42.58,11.6,63.53,8.47"/>
      </g>
    </g>
  </g>
  <g>
    <g>
      <g>
        <path class="cls-20" d="M327.48,250.85c-19.61,11.66-36.27,35.46-37.56,58.24,7.11-1.01,14.02-5.79,18.82-11.12,10.56-11.7,17.93-31.37,18.73-47.11Z"/>
        <path class="cls-9" d="M327.02,251.56c-4.92,9.6-10.3,18.97-16.1,28.07"/>
      </g>
      <g>
        <path class="cls-17" d="M344.73,266.18c-22.39,4.33-46.14,21.09-55.05,42.09,7.03,1.45,15.15-.71,21.48-4.1,13.9-7.44,27.49-23.45,33.58-37.99Z"/>
        <path class="cls-10" d="M344.26,266.45c-11.65,9.05-23.08,18.36-34.31,27.93"/>
      </g>
      <g>
        <path class="cls-20" d="M343.65,296.92c-17.69-4.6-40.65-.67-54.35,11.43,4.58,3.48,11.2,4.72,16.95,4.45,12.62-.58,27.98-7.47,37.4-15.89Z"/>
        <path class="cls-9" d="M290.97,308.06c17.39-2.01,34.57-5.84,51.17-11.4"/>
      </g>
    </g>
    <g>
      <path class="cls-5" d="M290.73,291.1c10.88-22.41,14.32-45.58,16.5-72.42,2.82-34.79,2.67-73.33,1.33-112"/>
      <path class="cls-5" d="M309.45,144.05c8.92-9.78,16.45-20.82,22.31-32.68"/>
      <path class="cls-5" d="M308.69,197.81c10.67-10.85,20.98-22.04,30.92-33.56"/>
      <path class="cls-5" d="M326.57,179.18c9.02-1.75,19.23-3.68,28.25-5.42"/>
      <path class="cls-5" d="M279.7,131.36c5.09,13.23,16.46,23.89,29.99,28.11"/>
      <path class="cls-5" d="M279.27,185.32c7.01,10.41,17.45,19.82,28.21,26.28"/>
      <path class="cls-5" d="M303.38,251.52c12.55-10.8,32.81-26.87,45.35-37.67"/>
      <line class="cls-5" x1="331.98" y1="200.36" x2="331.37" y2="227.84"/>
      <path class="cls-5" d="M293.24,211.39c3.5-.81,7.01-1.62,10.51-2.44"/>
      <path class="cls-5" d="M300.88,197.02s2.87,11.93,2.77,12.17"/>
      <path class="cls-5" d="M275.83,236.8c6.49,11.87,13.88,22.22,22.99,32.22"/>
      <line class="cls-5" x1="280.48" y1="265.18" x2="294.23" y2="264.02"/>
      <path class="cls-5" d="M318.74,239.31c10.7.6,21.38,1.62,32,3.06"/>
      <g>
        <ellipse class="cls-17" cx="334.04" cy="111" rx="9" ry="9.67"/>
        <path class="cls-6" d="M328.64,117.72c3.56-4.5,7.12-9,10.68-13.5"/>
      </g>
      <g>
        <ellipse class="cls-20" cx="308.16" cy="105.27" rx="9" ry="9.67"/>
        <line class="cls-9" x1="307.86" y1="96.02" x2="308.82" y2="114.6"/>
      </g>
      <g>
        <ellipse class="cls-20" cx="281.16" cy="133.27" rx="9" ry="9.67"/>
        <path class="cls-9" d="M278.99,124.6c1.13,4.84,2.26,9.68,3.39,14.52"/>
      </g>
      <g>
        <ellipse class="cls-20" cx="281.16" cy="148.77" rx="9" ry="9.67"/>
        <path class="cls-9" d="M273.28,153.02c3.57-1.05,7.07-2.35,10.46-3.9"/>
      </g>
      <g>
        <ellipse class="cls-17" cx="290.91" cy="143.02" rx="9" ry="9.67"/>
        <path class="cls-6" d="M294.96,151.15c-2.81-5.43-5.36-11-7.64-16.67"/>
      </g>
      <g>
        <path class="cls-19" d="M338.63,200.94c0,3.99-3.01,7.23-6.73,7.23s-6.73-3.24-6.73-7.23,3.01-7.23,6.73-7.23,6.73,3.24,6.73,7.23Z"/>
        <path class="cls-9" d="M331.91,207.85c.07-4.61.14-9.22.21-13.84"/>
      </g>
      <g>
        <ellipse class="cls-20" cx="342.29" cy="156.77" rx="11.13" ry="11.95"/>
        <path class="cls-9" d="M337.27,166.71c4.19-5.61,8.49-11.14,12.9-16.58"/>
      </g>
      <g>
        <ellipse class="cls-17" cx="352.29" cy="169.27" rx="11.13" ry="11.95"/>
        <path class="cls-9" d="M344.04,175.47c5.86-3.85,11.62-7.86,17.27-12.02"/>
        <path class="cls-6" d="M343.89,175.66c6.23-2.66,12.45-5.32,18.68-7.98"/>
      </g>
      <g>
        <ellipse class="cls-19" cx="280.83" cy="184.27" rx="9" ry="9.67"/>
        <path class="cls-9" d="M277.37,175.97c1.9,5.62,4.12,11.12,6.67,16.47"/>
      </g>
      <g>
        <path class="cls-19" d="M304.96,189.94c0,3.99-3.01,7.23-6.73,7.23s-6.73-3.24-6.73-7.23,3.01-7.23,6.73-7.23,6.73,3.24,6.73,7.23Z"/>
        <path class="cls-9" d="M296.44,183.62c1.35,4.08,2.7,8.16,4.04,12.24"/>
      </g>
      <g>
        <ellipse class="cls-19" cx="285.69" cy="212.02" rx="9.07" ry="8.44"/>
        <path class="cls-9" d="M277.48,213.48c5.47-.17,10.92-.92,16.22-2.25"/>
      </g>
      <g>
        <ellipse class="cls-20" cx="351.91" cy="212.02" rx="9" ry="9.67"/>
        <path class="cls-9" d="M345.26,216.88c4.44-3.47,8.83-7.01,13.16-10.61"/>
      </g>
      <g>
        <ellipse class="cls-19" cx="274.29" cy="234.27" rx="11.13" ry="11.95"/>
        <path class="cls-9" d="M269.15,224.28c3.09,6.88,6.71,13.51,10.81,19.84"/>
      </g>
      <g>
        <ellipse class="cls-19" cx="291.99" cy="245.02" rx="6.73" ry="7.23"/>
        <path class="cls-9" d="M291.15,251.89c1.09-4.56,1.97-9.17,2.65-13.82"/>
      </g>
      <g>
        <ellipse class="cls-1" cx="271.89" cy="264.27" rx="8.73" ry="9.38"/>
        <path class="cls-9" d="M263.48,265.86c5.67-.13,11.34-.25,17-.38"/>
      </g>
      <path class="cls-5" d="M290.85,252.08c.74,3.84,1.74,7.62,3,11.32"/>
      <g>
        <path class="cls-19" d="M350.79,234.3c3.99.18,7.09,3.34,6.92,7.05-.17,3.71-3.54,6.58-7.53,6.4-3.99-.18-7.09-3.34-6.92-7.05.17-3.71,3.54-6.58,7.53-6.4Z"/>
        <path class="cls-9" d="M343.22,241.01c4.82.44,9.68.54,14.51.28"/>
      </g>
    </g>
  </g>
  <g>
    <g>
      <path class="cls-5" d="M153.4,137.56c-.01-13.12,5.43-28.7,8.76-41.39,3.06-11.65,3.67-23.94,1.8-35.84-2.16-13.69-7.57-27.07-6.61-40.9"/>
      <path class="cls-20" d="M154.64,124.71c-1.52,0-2.94-.7-4.25-1.47-8.48-4.97-14.54-13.89-16.02-23.61,3.97-.44,7.94,1.59,10.63,4.54,2.69,2.95,4.38,6.65,6.03,10.28,1.61,3.54,2,6.71,3.61,10.25Z"/>
      <path class="cls-17" d="M179.13,102.83c-10.73,2.81-19.95,10.88-24.16,21.13,2.44.41,5.31-.32,7.56-1.36,7.5-3.44,14.12-11.9,16.6-19.78Z"/>
      <path class="cls-17" d="M158.5,108c-1.66-.85-2.95-2.26-4.12-3.71-6.25-7.76-9.94-17.55-10.38-27.5,4.43,1.64,7.49,5.41,9.56,9.66,3.73,7.67,4.35,13.04,4.95,21.55Z"/>
      <path class="cls-20" d="M182.51,87.36c-1.99.96-3.98,1.92-5.97,2.89-2.39,1.16-4.8,2.32-6.94,3.89-4.62,3.37-7.74,8.37-10.75,13.25,9.89-2.12,19.64-10.74,23.66-20.02Z"/>
      <path class="cls-20" d="M164.15,87.29c-2.67-3.25-5.33-6.51-8-9.76-2.19-2.68-4.39-5.36-6.15-8.34-4.01-6.8-5.54-15.04-4.22-22.83,5.11,2.75,9.19,7.28,11.69,12.52,1.92,4.03,2.84,8.45,3.73,12.83,1.09,5.3,1.86,10.29,2.94,15.59Z"/>
      <path class="cls-17" d="M190.51,50.46c-6.55,1.41-12.53,5.32-16.45,10.76-3.07,4.26-4.85,9.3-6.58,14.26-1.08,3.09-2.16,6.18-3.24,9.27,6.28-3.37,12.22-6.49,17.14-11.65,4.93-5.16,8.65-15.52,9.13-22.64Z"/>
      <path class="cls-20" d="M182.93,32.19c-5.36,2.75-10.9,5.78-14.27,10.78-3.03,4.49-3.95,10.04-4.79,15.39,8.25-7.02,14.9-16.17,19.06-26.17Z"/>
      <path class="cls-17" d="M171.52,12.52c-3.88,1.99-7.88,4.18-10.32,7.8-2.19,3.25-2.86,7.26-3.47,11.14,6.96-3.23,12.35-8.94,13.79-18.94Z"/>
      <path class="cls-17" d="M161.44,49.98c-4.97-1.15-9.54-3.92-12.87-7.79-3.32-3.86-5.38-8.8-5.77-13.89,2.3.96,4.38,2.87,6.09,4.68,4.87,5.17,9.05,10.81,12.55,16.99Z"/>
      <path class="cls-20" d="M158.78,0c-4.35,5.55-6.03,13.11-4.44,19.98.81,3.5,2.41,6.78,3.2,10.29,2.23-4.94,3.49-10.32,3.35-15.73-.14-5.41-1.16-9.21-2.11-14.54Z"/>
    </g>
    <g>
      <path class="cls-5" d="M115.85,42.56c-.47,11.68-.94,23.36-1.41,35.05-.25,6.11,1.17,19.87,3.55,25.5,4.32,10.21,10.75,6.14,10.31,21.94l-.33,7.13"/>
      <path class="cls-5" d="M114.72,58.51c-2.28-.27-4.05-2.26-4.77-4.43s-2.36-11.07-2.26-12.83"/>
      <path class="cls-5" d="M114.41,78.42c4.54-.49,7.47-5.07,8.89-9.41,3.67-11.24,1.86-23.48,3.34-35.21"/>
      <path class="cls-5" d="M115.87,95.89c-5.38-.1-10.55-3.57-12.68-8.51-1.43-3.31-1.53-7.01-1.62-10.61-.09-3.8-.18-7.59-.27-11.39"/>
      <circle class="cls-17" cx="107.68" cy="41.25" r="1.75"/>
      <circle class="cls-17" cx="115.85" cy="42.56" r="1.75"/>
      <circle class="cls-17" cx="126.63" cy="33.8" r="1.75"/>
      <circle class="cls-17" cx="100.5" cy="65.17" r="1.75"/>
    </g>
    <g>
      <path class="cls-5" d="M232.5,88.64s-.2-4.83.35-10.19c.55-5.36.05-10.85,1.3-16.09.24-.99.55-1.99,1.13-2.83.72-1.05,1.81-1.78,2.76-2.62,3.13-2.77,4.85-6.86,5.52-10.98s.4-8.33.13-12.5"/>
      <path class="cls-5" d="M234.25,61.58c.82-11.03,1.13-20.46,1.32-31.52"/>
      <circle class="cls-17" cx="235.57" cy="29.85" r="1.75"/>
      <path class="cls-17" d="M245.44,33.14c0,.97-.79,1.75-1.75,1.75s-1.75-.79-1.75-1.75.79-1.76,1.75-1.76,1.75.79,1.75,1.76Z"/>
      <path class="cls-5" d="M234.78,46.57c-2.88-.52-5.17-2.88-6.29-5.58s-1.24-5.71-1.1-8.63c.13-2.92.29-8,.29-8"/>
      <circle class="cls-17" cx="227.45" cy="24.36" r="1.75"/>
    </g>
    <g>
      <path class="cls-11" d="M133.79,124.83c-5.26-30.93,2.92-26.44,3.73-58.57.27-10.82-5.26-10.82-4.39-41.53"/>
      <g>
        <path class="cls-18" d="M122.8,7.48s.08,12.38,2.77,17.45c1.71,3.23,5.56,5.36,9.38,4.47,8.88-2.08,6.82-16.86,6.35-23.15l-18.5,1.24Z"/>
        <path class="cls-18" d="M132.97,16.19c.06-3.38-.61-7.54-2.47-10.36-1.13-1.71-3.02-2.95-5.07-3.07-2.04-.12-4.16,1-5.03,2.86-.51,1.09-.57,2.33-.47,3.53.17,1.98,3.48,13.08,4.47,14.8,1.99.56,4,1.08,5.99,1.64"/>
        <path class="cls-18" d="M133.51,16.15c-.51-3.34-.4-7.05,1.07-10.09.89-1.84,2.6-3.33,4.61-3.71,2.01-.39,4.26.44,5.37,2.16.65,1.01.88,2.24.94,3.44.1,1.98-3.2,14.63-3.96,16.47-1.65-.12-3.69.63-5.08,1.58"/>
        <path class="cls-18" d="M137.01,6.91c.99-2.1.07-4.9-1.97-6.01-2.04-1.11-4.89-.36-6.12,1.61-.39.63-.63,1.37-.54,2.11.13.99.83,1.81,1.5,2.55,1.27.37,2.57.69,3.89.7,1.33,0,2.67.24,3.23-.96Z"/>
        <path class="cls-8" d="M131.76,27.31c-4.06-7.42-3.52-16.8-3.85-22.96"/>
        <path class="cls-8" d="M134.71,27.21c1.61-8.23,2.53-14.81,2.36-23.19"/>
        <path class="cls-17" d="M133.13,30.65c-1.19-.02-2.38-.32-3.43-.88-1.01-.53-1.89-1.28-2.73-2.06-1.13-1.05-2.26-2.24-2.56-3.75,3.76,1.09,6.79,3.29,8.73,6.69Z"/>
        <path class="cls-17" d="M132.41,30.54c.4-1.12,1.07-2.15,1.93-2.97.83-.79,1.82-1.38,2.83-1.93,1.35-.74,2.85-1.42,4.37-1.23-2.1,3.89-5.12,5.79-9.13,6.13Z"/>
        <path class="cls-17" d="M132.99,30.94c-1.14-.87-3.14-5.24-.61-9.47,2.75,3.45,2.31,5.82.61,9.47Z"/>
      </g>
    </g>
    <g>
      <g>
        <g>
          <path class="cls-20" d="M222.48,49.76c-5.64.42-10.96,3.91-13.59,8.91,5.4.13,12.13-3.82,13.59-8.91Z"/>
          <path class="cls-20" d="M220.95,83.54c-5.64.42-10.96,3.91-13.59,8.91,5.4.13,12.13-3.82,13.59-8.91Z"/>
          <path class="cls-20" d="M227.02,70.87c-7.25.41-14.08,3.79-17.46,8.64,6.94.13,15.59-3.7,17.46-8.64Z"/>
          <path class="cls-20" d="M226.61,60.23c-3.31-1.11-7.07-.6-10.11,1.11-3.04,1.71-5.38,4.55-6.75,7.76,7.39-.64,14.09-4.45,16.86-8.87Z"/>
          <path class="cls-20" d="M207.45,99.07c-.36-3.47-2.38-6.68-5.2-8.74-2.82-2.06-6.37-3.01-9.86-2.93,3.65,6.46,9.89,10.98,15.05,11.67Z"/>
          <path class="cls-20" d="M208.67,84c.38-3.47-.93-7.03-3.25-9.64-2.32-2.61-5.59-4.28-9.02-4.93,2.21,7.08,7.37,12.81,12.27,14.57Z"/>
          <path class="cls-20" d="M209.76,69.55c-.17-3.06-1.8-5.96-4.18-7.89-2.38-1.93-5.46-2.92-8.52-2.99,2.93,5.82,8.21,10.05,12.71,10.88Z"/>
          <path class="cls-20" d="M208.54,58.99c-.11-2.84-1.57-5.56-3.75-7.39-2.18-1.83-5.02-2.8-7.86-2.92,2.62,5.45,7.45,9.47,11.61,10.31Z"/>
        </g>
        <path class="cls-11" d="M208.71,49.29c.31,7.66.63,15.32.94,22.98.42,10.27-3.69,21.19-1.72,31.94"/>
      </g>
      <g>
        <path class="cls-18" d="M198.7,27.66s.08,12.38,2.77,17.45c1.71,3.23,5.56,5.36,9.38,4.47,8.88-2.08,6.82-16.86,6.35-23.15l-18.5,1.24Z"/>
        <path class="cls-18" d="M208.87,36.37c.06-3.38-.61-7.54-2.47-10.36-1.13-1.71-3.02-2.95-5.07-3.07-2.04-.12-4.16,1-5.03,2.86-.51,1.09-.57,2.33-.47,3.53.17,1.98,3.48,13.08,4.47,14.8,1.99.56,4,1.08,5.99,1.64"/>
        <path class="cls-18" d="M209.41,36.33c-.51-3.34-.4-7.05,1.07-10.09.89-1.84,2.6-3.33,4.61-3.71,2.01-.39,4.26.44,5.37,2.16.65,1.01.88,2.24.94,3.44.1,1.98-3.2,14.63-3.96,16.47-1.65-.12-3.69.63-5.08,1.58"/>
        <path class="cls-18" d="M212.91,27.09c.99-2.1.07-4.9-1.97-6.01-2.04-1.11-4.89-.36-6.12,1.61-.39.63-.63,1.37-.54,2.11.13.99.83,1.81,1.5,2.55,1.27.37,2.57.69,3.89.7,1.33,0,2.67.24,3.23-.96Z"/>
        <path class="cls-8" d="M207.04,47.13c-2.94-7.45-3.9-15.68-2.73-23.6"/>
        <path class="cls-8" d="M210.6,47.52c1.33-8.26,2-16.63,1.99-25"/>
        <path class="cls-17" d="M209.03,50.83c-1.19-.02-2.38-.32-3.43-.88-1.01-.53-1.89-1.28-2.73-2.06-1.13-1.05-2.26-2.24-2.56-3.75,3.76,1.09,6.79,3.29,8.73,6.69Z"/>
        <path class="cls-17" d="M208.31,50.72c.4-1.12,1.07-2.15,1.93-2.97.83-.79,1.82-1.38,2.83-1.93,1.35-.74,2.85-1.42,4.37-1.23-2.1,3.89-5.12,5.79-9.13,6.13Z"/>
        <path class="cls-17" d="M208.89,51.12c-1.14-.87-3.14-5.24-.61-9.47,2.75,3.45,2.31,5.82.61,9.47Z"/>
      </g>
    </g>
  </g>
</svg>