<?xml version="1.0" encoding="UTF-8"?>
<svg id="Layer_1" xmlns="http://www.w3.org/2000/svg" viewBox="0 0 16.8 14.7">
  <defs>
    <style>
      .cls-1 {
        fill: #edebeb;
        fill-rule: evenodd;
      }
    </style>
  </defs>
  <path class="cls-1" d="M2.8,0c-.77,0-1.4.63-1.4,1.4v.7s0,.08,0,.12c-.82.29-1.4,1.07-1.4,1.98v8.4c0,1.16.94,2.1,2.1,2.1h12.6c1.16,0,2.1-.94,2.1-2.1V4.2c0-1.16-.94-2.1-2.1-2.1h-6.39c-.31-1.21-1.41-2.1-2.71-2.1h-2.8ZM6.81,2.1c-.24-.42-.69-.7-1.21-.7h-2.8v.7h4.01ZM2.1,3.5c-.39,0-.7.31-.7.7v8.4c0,.39.31.7.7.7h12.6c.39,0,.7-.31.7-.7V4.2c0-.39-.31-.7-.7-.7H2.1Z"/>
</svg>